<svg width="68" height="68" viewBox="0 0 68 68" fill="none" xmlns="http://www.w3.org/2000/svg">
<g clip-path="url(#clip0_82_82)">
<rect width="68" height="68" rx="34" fill="#191212"/>
<rect x="2" y="2" width="64" height="64" rx="32" fill="#583421"/>
<rect x="2" y="2" width="64" height="64" rx="32" fill="#583421"/>
<rect x="5" y="5" width="58" height="58" rx="29" fill="#191212"/>
<path d="M38.9805 19.4014V35.9922H43.4307V38.1455H38.9805V42.8008C38.9805 43.0469 38.9873 43.252 39.001 43.416C39.0283 43.5801 39.1104 43.7168 39.2471 43.8262C39.3838 43.9219 39.5957 43.9971 39.8828 44.0518C40.1699 44.0928 40.5801 44.1133 41.1133 44.1133H42.2002V46C41.5166 46 40.7031 45.9932 39.7598 45.9795C38.8301 45.9658 37.8115 45.959 36.7041 45.959C36.1709 45.959 35.6924 45.9658 35.2686 45.9795C34.8584 45.9795 34.4756 45.9795 34.1201 45.9795C33.7646 45.9795 33.4229 45.9863 33.0947 46C32.7666 46 32.418 46 32.0488 46V44.1133H33.3818C33.9561 44.1133 34.4141 44.0996 34.7559 44.0723C35.0977 44.0312 35.3506 43.9766 35.5146 43.9082C35.6924 43.8262 35.8086 43.7236 35.8633 43.6006C35.918 43.4639 35.9453 43.293 35.9453 43.0879V38.1455H24.3789C24.3105 37.6533 24.2354 37.1885 24.1533 36.751C24.0713 36.3135 23.9688 35.8896 23.8457 35.4795L35.2686 19.4014H38.9805ZM26.1631 36.0332H35.9658V22.0059H35.9248L26.1631 36.0332Z" fill="white"/>
</g>
<defs>
<clipPath id="clip0_82_82">
<rect width="68" height="68" fill="white"/>
</clipPath>
</defs>
</svg>
