<svg width="68" height="68" viewBox="0 0 68 68" fill="none" xmlns="http://www.w3.org/2000/svg">
<g clip-path="url(#clip0_82_112)">
<rect width="68" height="68" rx="34" fill="#191212"/>
<rect x="2" y="2" width="64" height="64" rx="32" fill="#583421"/>
<rect x="2" y="2" width="64" height="64" rx="32" fill="#583421"/>
<rect x="5" y="5" width="58" height="58" rx="29" fill="#191212"/>
<path d="M34.8379 19.0322C35.7676 19.0322 36.6152 19.0938 37.3809 19.2168C38.1465 19.3398 38.8438 19.5039 39.4727 19.709C40.1016 19.9141 40.6689 20.1533 41.1748 20.4268C41.6943 20.7002 42.1592 20.9873 42.5693 21.2881L42.6104 25.2666L40.5391 25.3076C40.5117 23.8584 40.0605 22.7852 39.1855 22.0879C38.3105 21.377 36.8682 21.0215 34.8584 21.0215C33.6143 21.0215 32.5547 21.2676 31.6797 21.7598C30.8047 22.2383 30.0869 22.9492 29.5264 23.8926C28.9795 24.8223 28.5762 25.9775 28.3164 27.3584C28.0703 28.7256 27.9473 30.291 27.9473 32.0547C28.8496 30.9883 29.8955 30.1885 31.085 29.6553C32.2744 29.1084 33.5527 28.835 34.9199 28.835C36.1914 28.835 37.3467 29.04 38.3857 29.4502C39.4248 29.8604 40.3135 30.4414 41.0518 31.1934C41.79 31.9453 42.3574 32.8408 42.7539 33.8799C43.1641 34.9189 43.3691 36.0742 43.3691 37.3457C43.3691 38.7266 43.1504 39.9775 42.7129 41.0986C42.2891 42.2197 41.6738 43.1768 40.8672 43.9697C40.0605 44.7627 39.083 45.3779 37.9346 45.8154C36.7998 46.2393 35.5215 46.4512 34.0996 46.4512C32.5547 46.4512 31.1943 46.1982 30.0186 45.6924C28.8428 45.1729 27.8516 44.3799 27.0449 43.3135C26.2383 42.2471 25.6299 40.9004 25.2197 39.2734C24.8096 37.6465 24.6045 35.7256 24.6045 33.5107C24.6045 31.4463 24.7822 29.5322 25.1377 27.7686C25.4932 25.9912 26.0742 24.46 26.8809 23.1748C27.6875 21.876 28.7402 20.8643 30.0391 20.1396C31.3379 19.4014 32.9375 19.0322 34.8379 19.0322ZM34.2227 31.0293C33.1973 31.0293 32.2129 31.2617 31.2695 31.7266C30.3398 32.1914 29.5059 32.8545 28.7676 33.7158C28.3027 34.6865 28.0703 35.8076 28.0703 37.0791C28.0703 38.2139 28.2139 39.2324 28.501 40.1348C28.7881 41.0371 29.1982 41.8027 29.7314 42.4316C30.2646 43.0605 30.9072 43.5459 31.6592 43.8877C32.4111 44.2158 33.252 44.3799 34.1816 44.3799C35.0566 44.3799 35.8496 44.2295 36.5605 43.9287C37.2852 43.6279 37.9004 43.1904 38.4062 42.6162C38.9258 42.042 39.3223 41.3379 39.5957 40.5039C39.8691 39.6699 40.0059 38.7197 40.0059 37.6533C40.0059 36.6963 39.8828 35.8145 39.6367 35.0078C39.4043 34.2012 39.0488 33.5039 38.5703 32.916C38.0918 32.3281 37.4902 31.8701 36.7656 31.542C36.041 31.2002 35.1934 31.0293 34.2227 31.0293Z" fill="white"/>
</g>
<defs>
<clipPath id="clip0_82_112">
<rect width="68" height="68" fill="white"/>
</clipPath>
</defs>
</svg>
