<svg width="68" height="68" viewBox="0 0 68 68" fill="none" xmlns="http://www.w3.org/2000/svg">
<g clip-path="url(#clip0_82_79)">
<rect width="68" height="68" rx="34" fill="#191212"/>
<rect x="2" y="2" width="64" height="64" rx="32" fill="#583421"/>
<rect x="2" y="2" width="64" height="64" rx="32" fill="#583421"/>
<rect x="5" y="5" width="58" height="58" rx="29" fill="#191212"/>
<path d="M35.7812 20.2012V42.8418C35.7812 43.0742 35.7949 43.2656 35.8223 43.416C35.8496 43.5527 35.9453 43.6689 36.1094 43.7646C36.2871 43.8467 36.5605 43.9082 36.9297 43.9492C37.2988 43.9766 37.8184 43.9902 38.4883 43.9902H39.8418V46C39.4043 46 38.9736 46 38.5498 46C38.126 46 37.6885 46 37.2373 46C36.7861 46 36.3076 46 35.8018 46C35.2959 45.9863 34.7422 45.9727 34.1406 45.959C33.4434 45.959 32.8281 45.9658 32.2949 45.9795C31.7754 45.9795 31.29 45.9795 30.8389 45.9795C30.3877 45.9795 29.9502 45.9863 29.5264 46C29.1025 46 28.6514 46 28.1729 46V43.9902H30.2441C30.791 43.9902 31.2148 43.9629 31.5156 43.9082C31.8164 43.8398 32.0352 43.751 32.1719 43.6416C32.3086 43.5322 32.3906 43.4023 32.418 43.252C32.4453 43.1016 32.459 42.9443 32.459 42.7803V22.3955C31.6387 22.8057 30.8115 23.1543 29.9775 23.4414C29.1572 23.7285 28.3438 23.9609 27.5371 24.1387V21.5957C28.5898 21.4043 29.6221 21.1309 30.6338 20.7754C31.6455 20.4199 32.6641 19.9893 33.6895 19.4834L35.7812 20.2012Z" fill="white"/>
</g>
<defs>
<clipPath id="clip0_82_79">
<rect width="68" height="68" fill="white"/>
</clipPath>
</defs>
</svg>
