<svg width="68" height="68" viewBox="0 0 68 68" fill="none" xmlns="http://www.w3.org/2000/svg">
<g clip-path="url(#clip0_82_107)">
<rect width="68" height="68" rx="34" fill="#191212"/>
<rect x="2" y="2" width="64" height="64" rx="32" fill="#583421"/>
<rect x="2" y="2" width="64" height="64" rx="32" fill="#583421"/>
<rect x="5" y="5" width="58" height="58" rx="29" fill="#191212"/>
<path d="M39.3906 23.5439C39.3906 23.1475 39.3838 22.8398 39.3701 22.6211C39.3701 22.4023 39.3564 22.2451 39.3291 22.1494C39.3018 22.04 39.2539 21.9785 39.1855 21.9648C39.1172 21.9512 39.0215 21.9443 38.8984 21.9443H28.9316C28.9316 21.9443 28.918 22.1631 28.8906 22.6006C28.877 23.0244 28.8496 23.5645 28.8086 24.2207C28.7812 24.877 28.7471 25.5879 28.7061 26.3535C28.6787 27.1191 28.6514 27.8369 28.624 28.5068C28.5967 29.1631 28.5693 29.7168 28.542 30.168C28.5283 30.6191 28.5215 30.8584 28.5215 30.8857C29.3418 30.2295 30.2305 29.7441 31.1875 29.4297C32.1582 29.1016 33.1768 28.9375 34.2432 28.9375C35.542 28.9375 36.7178 29.1426 37.7705 29.5527C38.8369 29.9492 39.7393 30.5234 40.4775 31.2754C41.2295 32.0137 41.8105 32.916 42.2207 33.9824C42.6309 35.0352 42.8359 36.2109 42.8359 37.5098C42.8359 39.041 42.5693 40.374 42.0361 41.5088C41.5166 42.6299 40.8057 43.5596 39.9033 44.2979C39.001 45.0361 37.9346 45.583 36.7041 45.9385C35.4873 46.2939 34.1816 46.4717 32.7871 46.4717C31.584 46.4717 30.4219 46.3213 29.3008 46.0205C28.1797 45.7334 27.127 45.3027 26.1426 44.7285L25.7119 39.4785L27.8242 39.458C27.9609 41.085 28.46 42.3154 29.3213 43.1494C30.1826 43.9834 31.5293 44.4004 33.3613 44.4004C34.25 44.4004 35.0635 44.2568 35.8018 43.9697C36.5537 43.6689 37.1963 43.2314 37.7295 42.6572C38.2627 42.083 38.6797 41.3721 38.9805 40.5244C39.2812 39.6768 39.4316 38.7061 39.4316 37.6123C39.4316 36.6279 39.2881 35.7393 39.001 34.9463C38.7275 34.1533 38.3311 33.4834 37.8115 32.9365C37.292 32.376 36.6631 31.9453 35.9248 31.6445C35.2002 31.3438 34.3799 31.1934 33.4639 31.1934C32.2061 31.1934 31.1123 31.4395 30.1826 31.9316C29.2666 32.4102 28.46 33.1348 27.7627 34.1055L26.1631 33.5723V19.5449H41.5029V24.3643H39.3906V23.5439Z" fill="white"/>
</g>
<defs>
<clipPath id="clip0_82_107">
<rect width="68" height="68" fill="white"/>
</clipPath>
</defs>
</svg>
