<svg width="68" height="68" viewBox="0 0 68 68" fill="none" xmlns="http://www.w3.org/2000/svg">
<g clip-path="url(#clip0_82_97)">
<rect width="68" height="68" rx="34" fill="#191212"/>
<rect x="2" y="2" width="64" height="64" rx="32" fill="#583421"/>
<rect x="2" y="2" width="64" height="64" rx="32" fill="#583421"/>
<rect x="5" y="5" width="58" height="58" rx="29" fill="#191212"/>
<path d="M24.666 46C24.6523 45.8633 24.6455 45.7197 24.6455 45.5693C24.6455 45.4189 24.6455 45.2686 24.6455 45.1182C24.6455 43.2725 24.9121 41.6865 25.4453 40.3604C25.9922 39.0342 26.7305 37.8584 27.6602 36.833C28.5898 35.7939 29.6699 34.8438 30.9004 33.9824C32.1445 33.1074 33.4707 32.2051 34.8789 31.2754C35.5215 30.8516 36.082 30.4414 36.5605 30.0449C37.0391 29.6348 37.4355 29.2178 37.75 28.7939C38.0645 28.3564 38.2969 27.8916 38.4473 27.3994C38.6113 26.9072 38.6934 26.3604 38.6934 25.7588C38.6934 25.0479 38.5635 24.4053 38.3037 23.8311C38.0439 23.2568 37.6748 22.7715 37.1963 22.375C36.7314 21.9648 36.1709 21.6504 35.5146 21.4316C34.8584 21.2129 34.1406 21.1035 33.3613 21.1035C32.2539 21.1035 31.3311 21.2266 30.5928 21.4727C29.8545 21.7188 29.2666 22.0742 28.8291 22.5391C28.3916 23.0039 28.0771 23.5781 27.8857 24.2617C27.6943 24.9453 27.5986 25.7178 27.5986 26.5791L25.2607 26.5176V21.4932C25.7666 21.0967 26.3135 20.748 26.9014 20.4473C27.4893 20.1328 28.1318 19.873 28.8291 19.668C29.54 19.4629 30.3125 19.3125 31.1465 19.2168C31.9941 19.1074 32.9238 19.0527 33.9355 19.0527C35.2207 19.0527 36.3623 19.21 37.3604 19.5244C38.3721 19.8389 39.2197 20.3037 39.9033 20.9189C40.6006 21.5205 41.127 22.2588 41.4824 23.1338C41.8516 24.0088 42.0361 25 42.0361 26.1074C42.0361 27.1328 41.8721 28.0215 41.5439 28.7734C41.2158 29.5117 40.7236 30.209 40.0674 30.8652C39.4111 31.5215 38.584 32.1914 37.5859 32.875C36.5879 33.5449 35.4189 34.3242 34.0791 35.2129C32.8486 36.0332 31.8301 36.8193 31.0234 37.5713C30.2168 38.3232 29.5742 39.0479 29.0957 39.7451C28.6309 40.4424 28.3027 41.1191 28.1113 41.7754C27.9199 42.418 27.8242 43.04 27.8242 43.6416H38.4883C38.8301 43.6416 39.0898 43.5801 39.2676 43.457C39.459 43.3203 39.5957 43.0605 39.6777 42.6777C39.7734 42.2812 39.8281 41.7275 39.8418 41.0166C39.8691 40.292 39.8828 39.3486 39.8828 38.1865H42.0361V46H24.666Z" fill="white"/>
</g>
<defs>
<clipPath id="clip0_82_97">
<rect width="68" height="68" fill="white"/>
</clipPath>
</defs>
</svg>
