<svg width="68" height="68" viewBox="0 0 68 68" fill="none" xmlns="http://www.w3.org/2000/svg">
<g clip-path="url(#clip0_82_102)">
<rect width="68" height="68" rx="34" fill="#191212"/>
<rect x="2" y="2" width="64" height="64" rx="32" fill="#583421"/>
<rect x="2" y="2" width="64" height="64" rx="32" fill="#583421"/>
<rect x="5" y="5" width="58" height="58" rx="29" fill="#191212"/>
<path d="M26.8604 38.0635C26.8604 40.1416 27.3867 41.6865 28.4395 42.6982C29.5059 43.6963 31.0781 44.1953 33.1562 44.1953C33.9082 44.1953 34.6396 44.0859 35.3506 43.8672C36.0615 43.6484 36.6904 43.3135 37.2373 42.8623C37.7979 42.4111 38.249 41.8369 38.5908 41.1396C38.9326 40.4424 39.1035 39.6221 39.1035 38.6787C39.1035 37.6123 38.8984 36.7236 38.4883 36.0127C38.0918 35.3018 37.5518 34.7344 36.8682 34.3105C36.1846 33.873 35.3916 33.5654 34.4893 33.3877C33.5869 33.1963 32.6436 33.1006 31.6592 33.1006V30.8857C32.6436 30.8721 33.5322 30.7559 34.3252 30.5371C35.1318 30.3047 35.8154 29.9766 36.376 29.5527C36.9502 29.1152 37.3877 28.582 37.6885 27.9531C38.0029 27.3242 38.1602 26.5928 38.1602 25.7588C38.1602 25.0615 38.0303 24.4258 37.7705 23.8516C37.5244 23.2637 37.1621 22.7646 36.6836 22.3545C36.2188 21.9443 35.6582 21.6299 35.002 21.4111C34.3457 21.1787 33.6211 21.0625 32.8281 21.0625C31.8848 21.0625 31.085 21.1855 30.4287 21.4316C29.7725 21.6641 29.2393 22.0127 28.8291 22.4775C28.4189 22.9287 28.1182 23.4893 27.9268 24.1592C27.749 24.8154 27.6602 25.5742 27.6602 26.4355L25.2607 26.3945L25.2812 21.2266C26.3066 20.4883 27.4619 19.9414 28.7471 19.5859C30.0459 19.2168 31.4473 19.0322 32.9512 19.0322C34.2773 19.0322 35.46 19.1895 36.499 19.5039C37.5518 19.8047 38.4404 20.249 39.165 20.8369C39.9033 21.4248 40.4639 22.1357 40.8467 22.9697C41.2295 23.8037 41.4209 24.7539 41.4209 25.8203C41.4209 27.3652 41.0039 28.6436 40.1699 29.6553C39.3359 30.6533 38.0713 31.3711 36.376 31.8086C37.2646 31.9863 38.0781 32.2529 38.8164 32.6084C39.5684 32.9502 40.2178 33.4014 40.7646 33.9619C41.3115 34.5225 41.7354 35.1992 42.0361 35.9922C42.3369 36.7715 42.4873 37.6807 42.4873 38.7197C42.4873 39.9229 42.2617 41.0029 41.8105 41.96C41.373 42.917 40.7373 43.7305 39.9033 44.4004C39.083 45.0703 38.0781 45.583 36.8887 45.9385C35.7129 46.2939 34.3799 46.4717 32.8896 46.4717C31.6182 46.4717 30.4629 46.2939 29.4238 45.9385C28.3848 45.5693 27.4893 45.0293 26.7373 44.3184C25.9854 43.6074 25.4043 42.7324 24.9941 41.6934C24.584 40.6406 24.3721 39.4375 24.3584 38.084L26.8604 38.0635Z" fill="white"/>
</g>
<defs>
<clipPath id="clip0_82_102">
<rect width="68" height="68" fill="white"/>
</clipPath>
</defs>
</svg>
